<?xml version="1.0" encoding="utf-8"?>
<!-- Generator: Adobe Illustrator 19.2.1, SVG Export Plug-In . SVG Version: 6.00 Build 0)  -->
<svg version="1.1" id="Layer_1" xmlns="http://www.w3.org/2000/svg" xmlns:xlink="http://www.w3.org/1999/xlink" x="0px" y="0px"
	 viewBox="0 0 24 24" style="enable-background:new 0 0 24 24;" xml:space="preserve">
<style type="text/css">
	.st0{clip-path:url(#SVGID_2_);}
</style>
<g>
	<g>
		<defs>
			<rect id="SVGID_1_" x="1.9" y="0.4" width="20.1" height="23.1"/>
		</defs>
		<clipPath id="SVGID_2_">
			<use xlink:href="#SVGID_1_"  style="overflow:visible;"/>
		</clipPath>
		<path class="st0" d="M21.5,16.6l-2.5-1.4l2.1-1.2c0.3-0.2,0.4-0.6,0.2-0.9c-0.2-0.3-0.6-0.4-0.9-0.2l-2.8,1.6l-4.4-2.6l4.4-2.5
			l2.8,1.6c0.1,0.1,0.2,0.1,0.3,0.1c0.2,0,0.4-0.1,0.6-0.3c0.2-0.3,0.1-0.8-0.2-0.9l-2.1-1.2l2.5-1.4c0.3-0.2,0.4-0.6,0.2-0.9
			c-0.2-0.3-0.6-0.4-0.9-0.2l-2.5,1.4l0-2.5c0-0.4-0.3-0.7-0.7-0.7c-0.4,0-0.7,0.3-0.7,0.7l0,3.3l-4.4,2.5V5.5l2.8-1.6
			c0.3-0.2,0.5-0.6,0.3-0.9c-0.2-0.3-0.6-0.4-0.9-0.2l-2.1,1.2V1.1c0-0.4-0.3-0.7-0.7-0.7c-0.4,0-0.7,0.3-0.7,0.7V4L9.1,2.8
			C8.7,2.6,8.3,2.7,8.1,3C7.9,3.3,8.1,3.8,8.4,3.9l2.8,1.6v5.1L6.7,8.1l0-3.2c0-0.4-0.3-0.7-0.7-0.7h0c-0.4,0-0.7,0.3-0.7,0.7l0,2.4
			L3,5.9C2.6,5.7,2.2,5.8,2,6.1C1.8,6.5,1.9,6.9,2.3,7.1l2.4,1.4L2.6,9.8c-0.3,0.2-0.4,0.6-0.2,0.9C2.5,10.9,2.7,11,2.9,11
			c0.1,0,0.2,0,0.4-0.1l2.8-1.6l4.5,2.6l-4.5,2.6l-2.8-1.6C3,12.6,2.5,12.7,2.4,13c-0.2,0.3-0.1,0.8,0.2,0.9l2.1,1.3l-2.4,1.4
			c-0.3,0.2-0.4,0.6-0.2,0.9c0.1,0.2,0.3,0.3,0.6,0.3c0.1,0,0.2,0,0.3-0.1l2.4-1.4l0,2.4c0,0.4,0.3,0.7,0.7,0.7h0
			c0.4,0,0.7-0.3,0.7-0.7l0-3.2l4.5-2.6v5.1l-2.8,1.6c-0.3,0.2-0.5,0.6-0.3,0.9C8.3,20.9,8.5,21,8.7,21c0.1,0,0.2,0,0.3-0.1l2.2-1.2
			v2.9c0,0.4,0.3,0.7,0.7,0.7c0.4,0,0.7-0.3,0.7-0.7v-2.8l2.1,1.2C14.8,21,14.9,21,15,21c0.3,0,0.5-0.1,0.6-0.3
			c0.2-0.3,0.1-0.7-0.3-0.9l-2.8-1.5V13l4.4,2.5l0,3.2c0,0.4,0.3,0.7,0.7,0.7c0.4,0,0.7-0.3,0.7-0.7l0-2.5l2.5,1.5
			c0.1,0.1,0.2,0.1,0.4,0.1c0.3,0,0.5-0.1,0.6-0.3C22,17.2,21.9,16.8,21.5,16.6L21.5,16.6z M21.5,16.6"/>
	</g>
</g>
</svg>
