<?xml version="1.0" encoding="utf-8"?>
<!-- Generator: Adobe Illustrator 19.2.1, SVG Export Plug-In . SVG Version: 6.00 Build 0)  -->
<svg version="1.1" id="Layer_1" xmlns="http://www.w3.org/2000/svg" xmlns:xlink="http://www.w3.org/1999/xlink" x="0px" y="0px"
	 viewBox="0 0 24 24" style="enable-background:new 0 0 24 24;" xml:space="preserve">
<style type="text/css">
	.st0{font-family:'Roboto-BoldCondensed';}
	.st1{font-size:21.1709px;}
</style>
<g>
	<path d="M21,0H3C1.5,0,0.3,1.2,0.3,2.6v18.1c0,1.4,1.2,2.6,2.6,2.6H21c1.4,0,2.6-1.2,2.6-2.6V2.6C23.7,1.2,22.5,0,21,0L21,0z
		 M21.3,20.7c0,0.1-0.1,0.2-0.2,0.2H3c-0.1,0-0.2-0.1-0.2-0.2V2.6c0-0.1,0.1-0.2,0.2-0.2H21c0.1,0,0.2,0.1,0.2,0.2V20.7z M21.3,20.7
		"/>
	<text transform="matrix(1 0 0 1 6.3438 19.2175)" class="st0 st1">A</text>
</g>
</svg>
