<?xml version="1.0" encoding="utf-8"?>
<!-- Generator: Adobe Illustrator 19.2.1, SVG Export Plug-In . SVG Version: 6.00 Build 0)  -->
<svg version="1.1" id="Layer_1" xmlns="http://www.w3.org/2000/svg" xmlns:xlink="http://www.w3.org/1999/xlink" x="0px" y="0px"
	 viewBox="0 0 24 24" style="enable-background:new 0 0 24 24;" xml:space="preserve">
<g>
	<path d="M21.6,5.6h-1.1V5.2c0-0.4-0.3-0.7-0.7-0.7h-1.1c-0.4,0-0.7,0.3-0.7,0.7v0.4H16v0c0-0.5-0.3-0.9-0.8-1V3.4
		c0-0.6-0.5-1.1-1.1-1.1H9.6C9,2.3,8.5,2.7,8.5,3.4v1.2c-0.4,0.1-0.8,0.6-0.8,1v0H5.8V5.2c0-0.4-0.3-0.7-0.7-0.7H4
		c-0.4,0-0.7,0.3-0.7,0.7v0.4H2.1C1.5,5.6,1,6.1,1,6.7v13.5c0,0.6,0.5,1.1,1.1,1.1h19.5c0.6,0,1.1-0.5,1.1-1.1V6.7
		C22.7,6.1,22.2,5.6,21.6,5.6L21.6,5.6z M20.5,6.3v14.3H3.2V6.3H20.5z M18.6,5.2C18.6,5.2,18.6,5.2,18.6,5.2l1.1,0c0,0,0,0,0,0v0.4
		h-1.2V5.2z M15.3,5.6h-0.8v0c0-0.2,0.2-0.4,0.4-0.4C15.1,5.2,15.3,5.4,15.3,5.6L15.3,5.6z M9.6,3h4.5c0.2,0,0.4,0.2,0.4,0.4v1.2
		c-0.4,0.1-0.7,0.6-0.7,1v0H10v0c0-0.5-0.3-0.9-0.8-1V3.4C9.2,3.1,9.4,3,9.6,3L9.6,3z M8.5,5.6c0-0.2,0.2-0.4,0.4-0.4
		c0.2,0,0.4,0.2,0.4,0.4v0L8.5,5.6L8.5,5.6z M4,5.2C4,5.2,4,5.2,4,5.2l1.1,0c0,0,0,0,0,0v0.4H4V5.2z M1.7,20.2V6.7
		c0-0.2,0.2-0.4,0.4-0.4h0.4v14.3H2.1C1.9,20.6,1.7,20.5,1.7,20.2L1.7,20.2z M22,20.2c0,0.2-0.2,0.4-0.4,0.4h-0.4V6.3h0.4
		c0.2,0,0.4,0.2,0.4,0.4V20.2z M22,20.2"/>
</g>
</svg>
