<?xml version="1.0" encoding="utf-8"?>
<!-- Generator: Adobe Illustrator 19.2.1, SVG Export Plug-In . SVG Version: 6.00 Build 0)  -->
<svg version="1.1" id="Capa_1" xmlns="http://www.w3.org/2000/svg" xmlns:xlink="http://www.w3.org/1999/xlink" x="0px" y="0px"
	 viewBox="0 0 24 24" style="enable-background:new 0 0 24 24;" xml:space="preserve">
<g>
	<g>
		<path d="M1.6,19.7h20.9c0.9,0,1.6-0.7,1.6-1.6V5.9c0-0.9-0.7-1.6-1.6-1.6H1.6C0.7,4.3,0,5.1,0,5.9v12.1C0,18.9,0.7,19.7,1.6,19.7z
			 M0.8,5.9c0-0.4,0.4-0.8,0.8-0.8h20.9c0.4,0,0.8,0.4,0.8,0.8v12.1c0,0.4-0.4,0.8-0.8,0.8H1.6c-0.4,0-0.8-0.4-0.8-0.8L0.8,5.9
			L0.8,5.9z"/>
		<rect x="5" y="9.6" width="1.1" height="0.9"/>
		<rect x="2.3" y="9.6" width="1.1" height="0.9"/>
		<path d="M3.4,11.7v-0.8h-1C2.5,11.3,2.9,11.6,3.4,11.7z"/>
		<rect x="3.8" y="10.9" width="0.8" height="0.8"/>
		<path d="M6,10.9H5v0.8C5.4,11.6,5.8,11.3,6,10.9z"/>
		<path d="M4.6,9.2h0.2H5h1C5.9,8.7,5.4,8.3,4.9,8.3H3.8v2.2h0.8L4.6,9.2L4.6,9.2z"/>
		<path d="M3.4,8.3c-0.5,0.1-0.9,0.4-1,0.9h1V8.3z"/>
		<path d="M16.8,10.8c0.4,0,0.8-0.1,1.2-0.3c0.3,0.2,0.7,0.3,1,0.3c1.2,0,2.2-1,2.2-2.2s-1-2.2-2.2-2.2c-0.4,0-0.8,0.1-1.2,0.3
			c-0.3-0.2-0.7-0.3-1.1-0.3c-1.2,0-2.2,1-2.2,2.2C14.6,9.8,15.5,10.8,16.8,10.8z M17.3,8.5h1.3h0.2h0.2c0-0.1,0-0.2,0-0.3h-0.2
			h-0.2h-1.2c0-0.1,0.1-0.2,0.1-0.3h1h0.2h0.2c0-0.1-0.1-0.2-0.1-0.3h-0.2h-0.2h-0.6c0.1-0.1,0.2-0.2,0.3-0.3h0.1h0.3h0.3
			c-0.1-0.1-0.2-0.2-0.3-0.3c0.2-0.1,0.5-0.2,0.8-0.2c1,0,1.8,0.8,1.8,1.8c0,1-0.8,1.8-1.8,1.8c-0.2,0-0.5-0.1-0.7-0.1
			c0,0,0.1-0.1,0.1-0.1h-0.3H18h0c0,0-0.1,0-0.1-0.1c0,0,0,0,0,0c-0.1-0.1-0.2-0.2-0.2-0.3h0.5h0.3h0.2c0.1-0.1,0.1-0.2,0.1-0.3
			h-0.2h-0.2h-0.8c-0.1-0.1-0.1-0.2-0.1-0.3h1.1h0.2h0.2c0-0.1,0-0.2,0-0.3h-0.2h-0.2h-1.2C17.3,8.7,17.3,8.6,17.3,8.5
			C17.3,8.5,17.3,8.5,17.3,8.5z"/>
		<polygon points="3.1,17.4 2.6,16.6 2.3,16.6 2.3,17.8 2.6,17.8 2.6,17 3.1,17.8 3.3,17.8 3.3,16.6 3.1,16.6 		"/>
		<path d="M4.3,17.7c0,0,0-0.1,0-0.1v-0.4c0-0.1,0-0.2-0.1-0.2c-0.1,0-0.2-0.1-0.3-0.1c-0.1,0-0.3,0-0.3,0.1c0,0.1-0.1,0.1-0.1,0.2
			h0.2c0,0,0-0.1,0-0.1c0,0,0.1,0,0.1,0c0,0,0.1,0,0.1,0c0,0,0,0,0,0.1c0,0,0,0.1-0.1,0.1c0,0,0,0-0.1,0l-0.1,0
			c-0.1,0-0.2,0-0.2,0.1c-0.1,0-0.1,0.1-0.1,0.2c0,0.1,0,0.1,0.1,0.2c0.1,0,0.1,0.1,0.2,0.1c0.1,0,0.1,0,0.2,0c0,0,0.1-0.1,0.1-0.1
			c0,0,0,0,0,0.1c0,0,0,0,0,0.1h0.3L4.3,17.7C4.3,17.8,4.3,17.8,4.3,17.7C4.3,17.7,4.3,17.7,4.3,17.7z M4,17.5c0,0.1,0,0.1-0.1,0.2
			c0,0-0.1,0-0.1,0c0,0-0.1,0-0.1,0c0,0,0,0,0-0.1c0,0,0-0.1,0.1-0.1c0,0,0.1,0,0.1,0l0.1,0C3.9,17.4,4,17.4,4,17.5
			C4,17.4,4,17.4,4,17.5L4,17.5L4,17.5L4,17.5z"/>
		<path d="M5.7,17c0,0-0.1-0.1-0.1-0.1c0,0-0.1,0-0.1,0c-0.1,0-0.1,0-0.2,0c0,0-0.1,0.1-0.1,0.1c0,0,0-0.1-0.1-0.1c0,0-0.1,0-0.2,0
			c-0.1,0-0.1,0-0.2,0.1c0,0-0.1,0.1-0.1,0.1v-0.1H4.4v0.9h0.2v-0.5c0,0,0-0.1,0-0.1c0,0,0.1-0.1,0.1-0.1c0.1,0,0.1,0,0.1,0.1
			c0,0,0,0.1,0,0.1v0.5h0.2v-0.5c0,0,0-0.1,0-0.1c0-0.1,0.1-0.1,0.1-0.1c0.1,0,0.1,0,0.1,0.1c0,0,0,0,0,0.1v0.6h0.2l0-0.6
			c0-0.1,0-0.1,0-0.1C5.7,17.1,5.7,17,5.7,17z"/>
		<path d="M6.7,17.2c0-0.1,0-0.1-0.1-0.2c0-0.1-0.1-0.1-0.2-0.1c-0.1,0-0.1,0-0.2,0c-0.1,0-0.2,0-0.3,0.1c-0.1,0.1-0.1,0.2-0.1,0.4
			c0,0.2,0,0.3,0.1,0.4c0.1,0.1,0.2,0.1,0.3,0.1c0.1,0,0.3,0,0.3-0.1c0.1-0.1,0.1-0.1,0.1-0.2H6.5c0,0,0,0,0,0.1c0,0-0.1,0-0.1,0
			c-0.1,0-0.1,0-0.1,0c-0.1,0-0.1-0.1-0.1-0.2h0.6C6.7,17.3,6.7,17.3,6.7,17.2z M6.1,17.3c0-0.1,0-0.1,0.1-0.1c0,0,0.1-0.1,0.1-0.1
			c0.1,0,0.1,0,0.1,0c0,0,0.1,0.1,0.1,0.1H6.1L6.1,17.3z"/>
		<polygon points="8.7,17.6 8.1,17.6 8.1,16.6 7.8,16.6 7.8,17.8 8.7,17.8 		"/>
		<path d="M9.5,17.7c0,0,0-0.1,0-0.1v-0.4c0-0.1,0-0.2-0.1-0.2c-0.1,0-0.2-0.1-0.3-0.1c-0.1,0-0.3,0-0.3,0.1c0,0.1-0.1,0.1-0.1,0.2
			H9c0,0,0-0.1,0-0.1c0,0,0.1,0,0.1,0c0,0,0.1,0,0.1,0c0,0,0,0,0,0.1c0,0,0,0.1,0,0.1c0,0,0,0-0.1,0l-0.1,0c-0.1,0-0.2,0-0.2,0.1
			c-0.1,0-0.1,0.1-0.1,0.2c0,0.1,0,0.1,0.1,0.2c0.1,0,0.1,0.1,0.2,0.1c0.1,0,0.1,0,0.2,0c0,0,0.1-0.1,0.1-0.1c0,0,0,0,0,0.1
			c0,0,0,0,0,0.1h0.3L9.5,17.7C9.6,17.8,9.6,17.8,9.5,17.7C9.5,17.7,9.5,17.7,9.5,17.7z M9.3,17.5c0,0.1,0,0.1-0.1,0.2
			c0,0-0.1,0-0.1,0c0,0-0.1,0-0.1,0c0,0,0,0,0-0.1c0,0,0-0.1,0.1-0.1c0,0,0.1,0,0.1,0l0.1,0C9.2,17.4,9.2,17.4,9.3,17.5
			C9.3,17.4,9.3,17.4,9.3,17.5L9.3,17.5z"/>
		<path d="M10.2,17.3c-0.1,0-0.2-0.1-0.2-0.1c0,0,0,0,0-0.1c0,0,0,0,0-0.1c0,0,0.1,0,0.1,0c0.1,0,0.1,0,0.1,0
			C10.2,17.1,10.2,17.2,10.2,17.3l0.3-0.1c0-0.1-0.1-0.2-0.1-0.2c-0.1,0-0.2-0.1-0.3-0.1c-0.1,0-0.2,0-0.3,0.1
			c-0.1,0.1-0.1,0.1-0.1,0.2c0,0.1,0,0.1,0.1,0.2c0,0,0.1,0.1,0.2,0.1c0.1,0,0.2,0.1,0.2,0.1c0,0,0,0,0,0.1c0,0,0,0,0,0.1
			c0,0-0.1,0-0.1,0c-0.1,0-0.1,0-0.2,0c0,0,0,0,0-0.1H9.7c0,0.1,0,0.2,0.1,0.2c0.1,0.1,0.2,0.1,0.3,0.1c0.1,0,0.2,0,0.3-0.1
			c0.1-0.1,0.1-0.1,0.1-0.2c0-0.1,0-0.1-0.1-0.2C10.4,17.3,10.3,17.3,10.2,17.3z"/>
		<path d="M10.9,16.7h-0.2v0.2h-0.1v0.2h0.1v0.5c0,0.1,0,0.1,0,0.1c0,0,0.1,0.1,0.2,0.1l0.1,0v-0.2c0,0,0,0,0,0c0,0,0,0,0,0
			c0,0-0.1,0-0.1,0c0,0,0,0,0-0.1v-0.5h0.1v-0.2h-0.1L10.9,16.7L10.9,16.7z"/>
		<path d="M12.2,16.9c-0.1,0-0.1,0-0.2,0.1c0,0-0.1,0.1-0.1,0.1v-0.1h-0.2v0.9h0.2v-0.5c0-0.1,0-0.1,0-0.1c0-0.1,0.1-0.1,0.2-0.1
			c0.1,0,0.1,0,0.1,0.1c0,0,0,0.1,0,0.1v0.5h0.2v-0.6c0-0.1,0-0.2-0.1-0.2C12.3,16.9,12.3,16.9,12.2,16.9z"/>
		<path d="M12.7,17c0,0.1-0.1,0.1-0.1,0.2h0.2c0,0,0-0.1,0-0.1c0,0,0.1,0,0.1,0c0,0,0.1,0,0.1,0c0,0,0,0,0,0.1c0,0,0,0.1,0,0.1
			c0,0,0,0-0.1,0l-0.1,0c-0.1,0-0.2,0-0.2,0.1c-0.1,0-0.1,0.1-0.1,0.2c0,0.1,0,0.1,0.1,0.2c0.1,0,0.1,0.1,0.2,0.1c0.1,0,0.1,0,0.2,0
			c0,0,0.1-0.1,0.1-0.1c0,0,0,0,0,0.1c0,0,0,0,0,0.1h0.3v0c0,0,0,0,0,0c0,0,0,0,0-0.1c0,0,0-0.1,0-0.1v-0.4c0-0.1,0-0.2-0.1-0.2
			c-0.1,0-0.2-0.1-0.3-0.1C12.9,16.9,12.8,16.9,12.7,17z M13.2,17.5c0,0.1,0,0.1-0.1,0.2c0,0-0.1,0-0.1,0c0,0-0.1,0-0.1,0
			c0,0,0,0,0-0.1c0,0,0-0.1,0.1-0.1c0,0,0.1,0,0.1,0l0.1,0C13.1,17.4,13.1,17.4,13.2,17.5C13.2,17.4,13.2,17.4,13.2,17.5L13.2,17.5
			L13.2,17.5z"/>
		<path d="M13.8,17.3c0,0,0-0.1,0-0.1c0,0,0.1-0.1,0.1-0.1c0.1,0,0.1,0,0.1,0.1c0,0,0,0.1,0,0.1v0.5h0.2v-0.5c0,0,0-0.1,0-0.1
			c0-0.1,0.1-0.1,0.1-0.1c0.1,0,0.1,0,0.1,0.1c0,0,0,0,0,0.1v0.6h0.2l0-0.6c0-0.1,0-0.1,0-0.1c0,0,0-0.1-0.1-0.1
			c0,0-0.1-0.1-0.1-0.1c0,0-0.1,0-0.1,0c-0.1,0-0.1,0-0.2,0c0,0-0.1,0.1-0.1,0.1c0,0,0-0.1-0.1-0.1c0,0-0.1,0-0.2,0
			c-0.1,0-0.1,0-0.2,0.1c0,0-0.1,0.1-0.1,0.1v-0.1h-0.2v0.9h0.2L13.8,17.3L13.8,17.3z"/>
		<path d="M15.9,17.2c0-0.1,0-0.1-0.1-0.2c0-0.1-0.1-0.1-0.2-0.1c-0.1,0-0.1,0-0.2,0c-0.1,0-0.2,0-0.3,0.1c-0.1,0.1-0.1,0.2-0.1,0.4
			c0,0.2,0,0.3,0.1,0.4c0.1,0.1,0.2,0.1,0.3,0.1c0.1,0,0.3,0,0.3-0.1c0.1-0.1,0.1-0.1,0.1-0.2h-0.2c0,0,0,0,0,0.1c0,0-0.1,0-0.1,0
			c-0.1,0-0.1,0-0.1,0c-0.1,0-0.1-0.1-0.1-0.2h0.6C15.9,17.3,15.9,17.3,15.9,17.2z M15.3,17.3c0-0.1,0-0.1,0.1-0.1
			c0,0,0.1-0.1,0.1-0.1c0.1,0,0.1,0,0.1,0c0,0,0.1,0.1,0.1,0.1H15.3L15.3,17.3z"/>
		<polygon points="2.6,15 2.9,14.5 3.2,15 3.7,15 3.2,14.2 3.7,13.4 3.2,13.4 2.9,13.9 2.7,13.4 2.1,13.4 2.7,14.2 2.1,15 		"/>
		<polygon points="4.9,15 5.5,15 4.9,14.2 5.5,13.4 4.9,13.4 4.7,13.9 4.4,13.4 3.9,13.4 4.4,14.2 3.8,15 4.4,15 4.7,14.5 		"/>
		<polygon points="6.1,14.2 5.6,15 6.1,15 6.4,14.5 6.7,15 7.2,15 6.6,14.2 7.2,13.4 6.7,13.4 6.4,13.9 6.1,13.4 5.6,13.4 		"/>
		<polygon points="8.7,15 9,14.5 9.3,15 9.8,15 9.3,14.2 9.8,13.4 9.3,13.4 9,13.9 8.7,13.4 8.2,13.4 8.7,14.2 8.2,15 		"/>
		<polygon points="10.4,15 10.7,14.5 11,15 11.6,15 11,14.2 11.5,13.4 11,13.4 10.7,13.9 10.5,13.4 9.9,13.4 10.5,14.2 9.9,15 		"/>
		<polygon points="12.2,15 12.5,14.5 12.7,15 13.3,15 12.7,14.2 13.3,13.4 12.7,13.4 12.5,13.9 12.2,13.4 11.7,13.4 12.2,14.2 
			11.6,15 		"/>
		<polygon points="14.8,15 15.1,14.5 15.3,15 15.9,15 15.3,14.2 15.9,13.4 15.4,13.4 15.1,13.9 14.8,13.4 14.3,13.4 14.8,14.2 
			14.2,15 		"/>
		<polygon points="17.6,13.4 17.1,13.4 16.8,13.9 16.5,13.4 16,13.4 16.5,14.2 16,15 16.5,15 16.8,14.5 17.1,15 17.6,15 17.1,14.2 
					"/>
		<polygon points="19.3,13.4 18.8,13.4 18.5,13.9 18.3,13.4 17.7,13.4 18.3,14.2 17.7,15 18.2,15 18.5,14.5 18.8,15 19.4,15 
			18.8,14.2 		"/>
	</g>
</g>
</svg>
