<?xml version="1.0" encoding="utf-8"?>
<!-- Generator: Adobe Illustrator 19.2.1, SVG Export Plug-In . SVG Version: 6.00 Build 0)  -->
<svg version="1.1" id="Capa_1" xmlns="http://www.w3.org/2000/svg" xmlns:xlink="http://www.w3.org/1999/xlink" x="0px" y="0px"
	 viewBox="0 0 24 24" style="enable-background:new 0 0 24 24;" xml:space="preserve">
<g>
	<g>
		<path d="M21.9,4.1H2.1C0.9,4.1,0,5.1,0,6.2v11.6c0,1.1,0.9,2.1,2.1,2.1h19.9c1.1,0,2.1-0.9,2.1-2.1V6.2C24,5.1,23.1,4.1,21.9,4.1z
			 M2.1,4.7h19.9c0.8,0,1.5,0.7,1.5,1.5v1.3H0.6V6.2C0.6,5.4,1.3,4.7,2.1,4.7z M21.9,19.3H2.1c-0.8,0-1.5-0.7-1.5-1.5V9h22.8v8.8
			C23.4,18.6,22.7,19.3,21.9,19.3z"/>
		<path d="M7.3,12.4H3.7c-0.7,0-1.2,0.5-1.2,1.2V15c0,0.7,0.5,1.2,1.2,1.2h3.6c0.7,0,1.2-0.5,1.2-1.2v-1.4
			C8.5,12.9,7.9,12.4,7.3,12.4z M7.9,15c0,0.3-0.3,0.6-0.6,0.6H3.7c-0.3,0-0.6-0.3-0.6-0.6v-1.4c0-0.3,0.3-0.6,0.6-0.6h3.6
			c0.3,0,0.6,0.3,0.6,0.6V15L7.9,15z"/>
		<path d="M21.2,12.4h-9.9c-0.2,0-0.3,0.1-0.3,0.3s0.1,0.3,0.3,0.3h9.9c0.2,0,0.3-0.1,0.3-0.3S21.4,12.4,21.2,12.4z"/>
		<path d="M16.1,14.8h-4.8c-0.2,0-0.3,0.1-0.3,0.3c0,0.2,0.1,0.3,0.3,0.3h4.8c0.2,0,0.3-0.1,0.3-0.3C16.4,14.9,16.2,14.8,16.1,14.8z
			"/>
	</g>
</g>
</svg>
