<?xml version="1.0" encoding="utf-8"?>
<!-- Generator: Adobe Illustrator 19.2.1, SVG Export Plug-In . SVG Version: 6.00 Build 0)  -->
<svg version="1.1" id="Layer_1" xmlns="http://www.w3.org/2000/svg" xmlns:xlink="http://www.w3.org/1999/xlink" x="0px" y="0px"
	 viewBox="0 0 24 24" style="enable-background:new 0 0 24 24;" xml:space="preserve">
<style type="text/css">
	.st0{clip-path:url(#SVGID_2_);}
</style>
<g>
	<g>
		<defs>
			<rect id="SVGID_1_" x="1.5" y="0.5" width="21.1" height="22.9"/>
		</defs>
		<clipPath id="SVGID_2_">
			<use xlink:href="#SVGID_1_"  style="overflow:visible;"/>
		</clipPath>
		<path class="st0" d="M17.8,13.2V9.8l3.2,3.2c0.2,0.2,0.4,0.2,0.6,0.2c0.2,0,0.4-0.1,0.6-0.2c0.3-0.3,0.3-0.9,0-1.2l-4.4-4.4V3
			c0-1.4-1.2-2.5-2.7-2.5H8.8C7.3,0.5,6.1,1.6,6.1,3v4.5l-4.4,4.4c-0.3,0.3-0.3,0.9,0,1.2c0.2,0.2,0.4,0.2,0.6,0.2
			c0.2,0,0.4-0.1,0.6-0.2l3.2-3.2v3.4l-4.4,4.4c-0.3,0.3-0.3,0.9,0,1.2c0.2,0.2,0.4,0.2,0.6,0.2c0.2,0,0.4-0.1,0.6-0.2l3.2-3.2v5.2
			c0,1.4,1.2,2.5,2.7,2.5h6.4c1.5,0,2.7-1.1,2.7-2.5v-5.2l3.2,3.2c0.2,0.2,0.4,0.2,0.6,0.2c0.2,0,0.4-0.1,0.6-0.2
			c0.3-0.3,0.3-0.9,0-1.2L17.8,13.2z M16.2,13.6v4H7.8V7.8h8.4V13.6z M8.8,2.2h6.4c0.5,0,1,0.4,1,0.8v3.2H7.8V3
			C7.8,2.5,8.2,2.2,8.8,2.2L8.8,2.2z M15.2,21.6H8.8c-0.5,0-1-0.4-1-0.8v-1.6h8.4v1.6C16.2,21.3,15.7,21.6,15.2,21.6L15.2,21.6z
			 M15.2,21.6"/>
	</g>
</g>
</svg>
