<?xml version="1.0" encoding="utf-8"?>
<!-- Generator: Adobe Illustrator 19.2.1, SVG Export Plug-In . SVG Version: 6.00 Build 0)  -->
<svg version="1.1" id="Capa_1" xmlns="http://www.w3.org/2000/svg" xmlns:xlink="http://www.w3.org/1999/xlink" x="0px" y="0px"
	 viewBox="0 0 24 24" style="enable-background:new 0 0 24 24;" xml:space="preserve">
<g>
	<g>
		<path d="M12,0C5.4,0,0,5.4,0,12s5.4,12,12,12s12-5.4,12-12S18.6,0,12,0z M12,22.4C6.3,22.4,1.6,17.7,1.6,12
			C1.6,6.3,6.3,1.6,12,1.6S22.4,6.3,22.4,12C22.4,17.7,17.7,22.4,12,22.4z"/>
		<path d="M16.3,8.1l-6.2,6.2l-2.5-2.5c-0.3-0.3-0.8-0.3-1.1,0c-0.3,0.3-0.3,0.8,0,1.1l3.1,3.1c0.2,0.2,0.4,0.2,0.6,0.2
			s0.4-0.1,0.6-0.2c0,0,0,0,0,0l6.7-6.7c0.3-0.3,0.3-0.8,0-1.1C17.1,7.8,16.7,7.8,16.3,8.1z"/>
	</g>
</g>
</svg>
