<?xml version="1.0" encoding="utf-8"?>
<!-- Generator: Adobe Illustrator 19.2.1, SVG Export Plug-In . SVG Version: 6.00 Build 0)  -->
<svg version="1.1" id="Capa_1" xmlns="http://www.w3.org/2000/svg" xmlns:xlink="http://www.w3.org/1999/xlink" x="0px" y="0px"
	 viewBox="0 0 24 24" style="enable-background:new 0 0 24 24;" xml:space="preserve">
<path d="M23.9,1.4c-0.1-0.3-0.4-0.4-0.7-0.4H0.7c-0.3,0-0.5,0.2-0.7,0.4C-0.1,1.6,0,1.9,0.2,2.1l8.7,10.5v9.7c0,0.3,0.1,0.5,0.3,0.6
	c0.1,0.1,0.3,0.1,0.4,0.1c0.1,0,0.2,0,0.3-0.1l4.9-2.4c0.2-0.1,0.4-0.4,0.4-0.7l0-7.3l8.7-10.5C24,1.9,24.1,1.6,23.9,1.4z
	 M13.9,11.9c-0.1,0.1-0.2,0.3-0.2,0.5l0,7.1l-3.4,1.7v-8.8c0-0.2-0.1-0.3-0.2-0.5L2.3,2.4h19.5L13.9,11.9z"/>
</svg>
