<?xml version="1.0" encoding="utf-8"?>
<!-- Generator: Adobe Illustrator 19.2.1, SVG Export Plug-In . SVG Version: 6.00 Build 0)  -->
<svg version="1.1" id="Capa_1" xmlns="http://www.w3.org/2000/svg" xmlns:xlink="http://www.w3.org/1999/xlink" x="0px" y="0px"
	 viewBox="0 0 24 24" style="enable-background:new 0 0 24 24;" xml:space="preserve">
<style type="text/css">
	.st0{fill:#010002;}
</style>
<g>
	<g>
		<g>
			<path class="st0" d="M22.1,15.5v3.8H24v-5.8H1.9V5.7c0-0.3-0.1-0.5-0.3-0.7C1.5,4.8,1.2,4.7,1,4.7S0.5,4.8,0.3,5S0,5.4,0,5.7
				v13.6h1.9v-3.8H22.1z"/>
			<path class="st0" d="M4.9,9.6c0.5,0,0.9-0.2,1.3-0.5c0.4-0.3,0.5-0.8,0.5-1.2c0-0.5-0.2-0.9-0.5-1.2C5.9,6.3,5.4,6.1,4.9,6.1
				S4,6.3,3.7,6.6S3.2,7.4,3.2,7.9s0.2,0.9,0.5,1.2C4,9.4,4.5,9.6,4.9,9.6z"/>
			<path class="st0" d="M24,12.1V9.8c0-0.4-0.1-0.7-0.4-0.9c-0.3-0.2-0.6-0.4-1-0.4L8.7,7H8.6C8.3,7,8.1,7.1,7.9,7.3
				S7.7,7.7,7.7,7.9v2.7H4.1c-0.6,0-0.9,0.2-0.9,0.7s0.3,0.7,0.9,0.7H24z"/>
		</g>
	</g>
</g>
</svg>
