<?xml version="1.0" encoding="utf-8"?>
<!-- Generator: Adobe Illustrator 19.2.1, SVG Export Plug-In . SVG Version: 6.00 Build 0)  -->
<svg version="1.1" id="Capa_1" xmlns="http://www.w3.org/2000/svg" xmlns:xlink="http://www.w3.org/1999/xlink" x="0px" y="0px"
	 viewBox="0 0 24 24" style="enable-background:new 0 0 24 24;" xml:space="preserve">
<path d="M5.6,13.8H1.1c-0.6,0-1.1,0.5-1.1,1.1v4.5c0,0.6,0.5,1.1,1.1,1.1h4.5c0.6,0,1.1-0.5,1.1-1.1v-4.5
	C6.7,14.3,6.2,13.8,5.6,13.8z M6,19.4c0,0.2-0.2,0.4-0.4,0.4H1.1c-0.2,0-0.4-0.2-0.4-0.4v-4.5c0-0.2,0.2-0.4,0.4-0.4h4.5
	c0.2,0,0.4,0.2,0.4,0.4V19.4z"/>
<path d="M5.6,5.5H1.1C0.5,5.5,0,6,0,6.6v4.5c0,0.6,0.5,1.1,1.1,1.1h4.5c0.6,0,1.1-0.5,1.1-1.1V6.6C6.7,6,6.2,5.5,5.6,5.5z M6,11.1
	c0,0.2-0.2,0.4-0.4,0.4H1.1c-0.2,0-0.4-0.2-0.4-0.4V6.6c0-0.2,0.2-0.4,0.4-0.4h4.5C5.8,6.2,6,6.4,6,6.6V11.1z"/>
<path d="M22.9,13.8H9.2c-0.6,0-1.1,0.5-1.1,1.1v4.5c0,0.6,0.5,1.1,1.1,1.1h13.7c0.6,0,1.1-0.5,1.1-1.1v-4.5
	C24,14.3,23.5,13.8,22.9,13.8z M23.3,19.4c0,0.2-0.2,0.4-0.4,0.4H9.2c-0.2,0-0.4-0.2-0.4-0.4v-4.5c0-0.2,0.2-0.4,0.4-0.4h13.7
	c0.2,0,0.4,0.2,0.4,0.4V19.4z"/>
<path d="M22.9,5.5H9.2C8.6,5.5,8.1,6,8.1,6.6v4.5c0,0.6,0.5,1.1,1.1,1.1h13.7c0.6,0,1.1-0.5,1.1-1.1V6.6C24,6,23.5,5.5,22.9,5.5z
	 M23.3,11.1c0,0.2-0.2,0.4-0.4,0.4H9.2c-0.2,0-0.4-0.2-0.4-0.4V6.6c0-0.2,0.2-0.4,0.4-0.4h13.7c0.2,0,0.4,0.2,0.4,0.4V11.1z"/>
</svg>
