<?xml version="1.0" encoding="utf-8"?>
<!-- Generator: Adobe Illustrator 19.2.1, SVG Export Plug-In . SVG Version: 6.00 Build 0)  -->
<svg version="1.1" id="Capa_1" xmlns="http://www.w3.org/2000/svg" xmlns:xlink="http://www.w3.org/1999/xlink" x="0px" y="0px"
	 viewBox="0 0 24 24" style="enable-background:new 0 0 24 24;" xml:space="preserve">
<g>
	<path d="M12,13.6L12,13.6c0.2,0,0.4-0.1,0.5-0.1l0,0c0,0,0,0,0,0l0.5-0.4L24,4C24,4,23.9,4,23.9,4H0.1c0,0-0.1,0-0.1,0l11.4,9.4
		C11.6,13.5,11.8,13.6,12,13.6z M0,5.3v13.3L8.2,12L0,5.3z M15.8,12l8.2,6.6V5.3L15.8,12z M13.2,14.2c-0.3,0.3-0.8,0.4-1.2,0.4
		c-0.4,0-0.9-0.1-1.2-0.4L9,12.6l-9,7.2v0C0,20,0.1,20,0.1,20h23.7c0.1,0,0.1-0.1,0.1-0.1v0l-9-7.2L13.2,14.2z"/>
</g>
</svg>
