<?xml version="1.0" encoding="utf-8"?>
<!-- Generator: Adobe Illustrator 19.2.1, SVG Export Plug-In . SVG Version: 6.00 Build 0)  -->
<svg version="1.1" id="Capa_1" xmlns="http://www.w3.org/2000/svg" xmlns:xlink="http://www.w3.org/1999/xlink" x="0px" y="0px"
	 viewBox="0 0 24 24" style="enable-background:new 0 0 24 24;" xml:space="preserve">
<style type="text/css">
	.st0{fill:#010002;}
</style>
<g>
	<g>
		<g>
			<path class="st0" d="M22.4,22.1l-2,1.3c-1.3,0.9-6.7,1.9-14.1-7.1C-0.7,7.8,1.3,3,2.3,1.9l1.6-1.7c0.4-0.3,1-0.3,1.3,0.1l4.3,5.1
				l0,0c0.3,0.4,0.3,1-0.1,1.3v0L7.5,8.1c-0.8,0.7-0.1,1.9,0.7,3.1l3.7,4.3c1.7,1.7,2.6,2.4,3.5,1.9l1.6-1.8c0.4-0.3,1-0.3,1.3,0.1
				l4.3,5.1v0C22.8,21.2,22.8,21.8,22.4,22.1z"/>
		</g>
	</g>
</g>
</svg>
