<?xml version="1.0" encoding="utf-8"?>
<!-- Generator: Adobe Illustrator 19.2.1, SVG Export Plug-In . SVG Version: 6.00 Build 0)  -->
<svg version="1.1" id="Capa_1" xmlns="http://www.w3.org/2000/svg" xmlns:xlink="http://www.w3.org/1999/xlink" x="0px" y="0px"
	 viewBox="0 0 24 24" style="enable-background:new 0 0 24 24;" xml:space="preserve">
<style type="text/css">
	.st0{fill:#010002;}
</style>
<g>
	<g>
		<path class="st0" d="M13.7,24c-0.2,0-0.4-0.1-0.5-0.2c-0.4-0.4-8.8-9.4-8.8-14.4C4.3,4.2,8.5,0,13.7,0C18.8,0,23,4.2,23,9.3
			c0,5-8.5,14.1-8.8,14.4C14,23.9,13.8,24,13.7,24z M13.7,1.4c-4.4,0-8,3.6-8,8c0,3.5,5.4,10.1,8,13c2.6-2.9,8-9.5,8-13
			C21.6,4.9,18,1.4,13.7,1.4z"/>
	</g>
	<g>
		<path class="st0" d="M13.7,12.3c-2.2,0-4-1.8-4-4c0-2.2,1.8-4,4-4c2.2,0,4,1.8,4,4C17.6,10.5,15.8,12.3,13.7,12.3z M13.7,5.7
			c-1.4,0-2.6,1.2-2.6,2.6c0,1.4,1.2,2.6,2.6,2.6c1.4,0,2.6-1.2,2.6-2.6C16.2,6.9,15.1,5.7,13.7,5.7z"/>
	</g>
</g>
</svg>
