<?xml version="1.0" encoding="utf-8"?>
<!-- Generator: Adobe Illustrator 19.2.1, SVG Export Plug-In . SVG Version: 6.00 Build 0)  -->
<svg version="1.1" id="Capa_1" xmlns="http://www.w3.org/2000/svg" xmlns:xlink="http://www.w3.org/1999/xlink" x="0px" y="0px"
	 viewBox="0 0 24 24" style="enable-background:new 0 0 24 24;" xml:space="preserve">
<g>
	<g id="_x38__3_">
		<g>
			<path d="M12,0C5.4,0,0,5.4,0,12s5.4,12,12,12s12-5.4,12-12S18.6,0,12,0z M12,22.5C6.2,22.5,1.5,17.8,1.5,12S6.2,1.5,12,1.5
				S22.5,6.2,22.5,12S17.8,22.5,12,22.5z M16.5,11.3h-3.8V7.5c0-0.4-0.3-0.8-0.8-0.8s-0.8,0.3-0.8,0.8v3.8H7.5
				c-0.4,0-0.8,0.3-0.8,0.8s0.3,0.8,0.8,0.8h3.8v3.8c0,0.4,0.3,0.8,0.8,0.8s0.8-0.3,0.8-0.8v-3.8h3.8c0.4,0,0.8-0.3,0.8-0.8
				S16.9,11.3,16.5,11.3z"/>
		</g>
	</g>
</g>
</svg>
