<?xml version="1.0" encoding="utf-8"?>
<!-- Generator: Adobe Illustrator 19.2.1, SVG Export Plug-In . SVG Version: 6.00 Build 0)  -->
<svg version="1.1" id="Capa_1" xmlns="http://www.w3.org/2000/svg" xmlns:xlink="http://www.w3.org/1999/xlink" x="0px" y="0px"
	 viewBox="0 0 24 24" style="enable-background:new 0 0 24 24;" xml:space="preserve">
<path d="M3.3,6.3C2.7,8.5,3,10.8,4.1,12.8c1.5,2.6,4.3,4.3,7.4,4.3c1.1,0,2.3-0.2,3.3-0.7l4.4,7.7l1.8-1l-4.4-7.7
	c1.5-1.1,2.6-2.7,3.1-4.6c0.6-2.2,0.3-4.5-0.9-6.5C17.3,1.6,14.5,0,11.5,0c-1.5,0-3,0.4-4.2,1.1C5.3,2.3,3.9,4.1,3.3,6.3z M11.5,2
	c2.3,0,4.5,1.2,5.6,3.2c0.9,1.5,1.1,3.2,0.6,4.9c-0.4,1.7-1.5,3.1-3,3.9c-1,0.6-2.1,0.9-3.2,0.9c-2.3,0-4.5-1.2-5.6-3.2
	C5,10.2,4.8,8.5,5.2,6.8c0.4-1.7,1.5-3.1,3-3.9C9.2,2.3,10.4,2,11.5,2z"/>
</svg>
