<?xml version="1.0" encoding="utf-8"?>
<!-- Generator: Adobe Illustrator 19.2.1, SVG Export Plug-In . SVG Version: 6.00 Build 0)  -->
<svg version="1.1" id="Layer_1" xmlns="http://www.w3.org/2000/svg" xmlns:xlink="http://www.w3.org/1999/xlink" x="0px" y="0px"
	 viewBox="0 0 24 24" style="enable-background:new 0 0 24 24;" xml:space="preserve">
<g>
	<path d="M14.1,22.7c0,0.3-0.3,0.6-0.6,0.6h-3.1c-0.3,0-0.6-0.3-0.6-0.6c0-0.3,0.3-0.6,0.6-0.6h3.1C13.9,22.1,14.1,22.4,14.1,22.7
		L14.1,22.7z M19.2,17.2v1.7c0,1.2-1,2.2-2.2,2.2H7c-1.2,0-2.2-1-2.2-2.2v-1.7c0-0.3,0.3-0.6,0.6-0.6h0.2c0,0,0,0,0,0v-1.5
		c0,0,0-0.1,0-0.1c0-0.1,0-0.2,0.1-0.2c0-0.1,0.1-0.1,0.2-0.2c0,0,0.1,0,0.1,0c0.2-0.1,0.5-0.2,0.7-0.3v-7c0-1.1,0.7-2.1,1.8-2.5
		c0,0,0-0.1,0-0.1V3.2c0-1.4,1.1-2.5,2.5-2.5h2.4c1.4,0,2.5,1.1,2.5,2.5v1.4c0,0,0,0.1,0,0.1c0.4,0.2,0.8,0.4,1.1,0.7c0,0,0,0,0-0.1
		c0.1-0.3,0.5-0.4,0.8-0.2c0.3,0.1,0.4,0.5,0.2,0.8c-1.1,2-2.6,3.9-4.6,5.6C11.5,12.8,9.7,14,7.7,15v1.7h8.6V9.7
		c0-0.3,0.3-0.6,0.6-0.6c0.3,0,0.6,0.3,0.6,0.6v6.9h1.2C18.9,16.7,19.2,16.9,19.2,17.2L19.2,17.2z M9.5,4.6c0,0.1,0,0.2,0,0.3
		c0,0,0,0,0,0c0.2,0.5,0.7,0.9,1.3,0.9h2.4c0.6,0,1.1-0.4,1.3-0.9c0,0,0,0,0,0c0-0.1,0-0.2,0-0.3V3.2c0-0.7-0.6-1.3-1.3-1.3h-2.4
		c-0.7,0-1.3,0.6-1.3,1.3V4.6z M7.7,13.7c3.6-1.8,6.5-4.3,8.4-7.2c-0.2-0.3-0.4-0.6-0.7-0.7C14.9,6.5,14.1,7,13.2,7h-2.4
		C9.9,7,9.1,6.5,8.6,5.8C8.1,6,7.7,6.6,7.7,7.2V13.7z M18,17.8h-1.2c0,0,0,0,0,0H7.1c0,0,0,0,0,0H6v1.1C6,19.5,6.4,20,7,20H17
		c0.6,0,1.1-0.5,1.1-1.1V17.8z M18,17.8"/>
</g>
</svg>
