<?xml version="1.0" encoding="utf-8"?>
<!-- Generator: Adobe Illustrator 19.2.1, SVG Export Plug-In . SVG Version: 6.00 Build 0)  -->
<svg version="1.1" id="Capa_1" xmlns="http://www.w3.org/2000/svg" xmlns:xlink="http://www.w3.org/1999/xlink" x="0px" y="0px"
	 viewBox="0 0 24 24" style="enable-background:new 0 0 24 24;" xml:space="preserve">
<g>
	<path d="M23,8.4l-6.6-0.6c-0.4,0-0.8-0.3-0.9-0.7L13,1.3c-0.4-0.9-1.7-0.9-2.1,0L8.6,7C8.4,7.4,8.1,7.7,7.6,7.7L1,8.4
		c-1,0.1-1.4,1.3-0.6,2l5,4.4c0.3,0.3,0.5,0.7,0.4,1.1L4.2,22C4,23,5,23.7,5.9,23.2l5.5-3.2c0.4-0.2,0.8-0.2,1.2,0l5.5,3.2
		C19,23.7,20,23,19.8,22l-1.5-6.1c-0.1-0.4,0-0.8,0.4-1.1l5-4.4C24.4,9.7,23.9,8.5,23,8.4z"/>
</g>
</svg>
