<?xml version="1.0" encoding="utf-8"?>
<!-- Generator: Adobe Illustrator 19.2.1, SVG Export Plug-In . SVG Version: 6.00 Build 0)  -->
<svg version="1.1" id="Capa_1" xmlns="http://www.w3.org/2000/svg" xmlns:xlink="http://www.w3.org/1999/xlink" x="0px" y="0px"
	 viewBox="0 0 24 24" style="enable-background:new 0 0 24 24;" xml:space="preserve">
<g>
	<path d="M24,12c0-6.6-5.4-12-12-12S0,5.4,0,12c0,3.6,1.7,6.9,4.2,9.1c0,0,0.1,0.1,0.1,0.1C6.4,23,9.1,24,12,24c2.9,0,5.5-1,7.6-2.7
		c0.1,0,0.2-0.1,0.3-0.2C22.4,18.8,24,15.6,24,12z M1.1,12C1.1,6,6,1.1,12,1.1S22.9,6,22.9,12c0,2.9-1.2,5.6-3.1,7.6
		c-0.3-1.4-1.2-3.9-4-5.5c0.6-0.8,1-1.8,1-2.9c0-2.6-2.1-4.8-4.8-4.8s-4.8,2.1-4.8,4.8c0,1.1,0.4,2.1,1,2.9c-2.8,1.6-3.8,4-4,5.5
		C2.3,17.6,1.1,14.9,1.1,12z M8.3,11.2c0-2,1.7-3.7,3.7-3.7s3.7,1.7,3.7,3.7S14,14.8,12,14.8S8.3,13.2,8.3,11.2z M5.2,20.5
		c0.1-0.9,0.5-3.9,3.9-5.6c0.8,0.6,1.8,1,2.9,1s2.1-0.4,3-1c3.3,1.7,3.8,4.6,3.9,5.6C17,22,14.6,22.9,12,22.9
		C9.4,22.9,7.1,22,5.2,20.5z"/>
</g>
</svg>
