<?xml version="1.0" encoding="utf-8"?>
<!-- Generator: Adobe Illustrator 19.2.1, SVG Export Plug-In . SVG Version: 6.00 Build 0)  -->
<svg version="1.1" id="Capa_1" xmlns="http://www.w3.org/2000/svg" xmlns:xlink="http://www.w3.org/1999/xlink" x="0px" y="0px"
	 viewBox="0 0 24 24" style="enable-background:new 0 0 24 24;" xml:space="preserve">
<style type="text/css">
	.st0{fill:#010002;}
</style>
<g>
	<g>
		<path class="st0" d="M12,24C5.4,24,0,18.6,0,12C0,5.4,5.4,0,12,0s12,5.4,12,12C24,18.6,18.6,24,12,24z M12,1.4
			C6.1,1.4,1.4,6.1,1.4,12c0,5.9,4.8,10.6,10.6,10.6S22.6,17.9,22.6,12C22.6,6.1,17.9,1.4,12,1.4z"/>
	</g>
	<g>
		<path class="st0" d="M15.7,16.4c-0.2,0-0.4-0.1-0.5-0.2l-3.7-3.7c-0.1-0.1-0.2-0.3-0.2-0.5V4.2c0-0.4,0.3-0.7,0.7-0.7
			c0.4,0,0.7,0.3,0.7,0.7v7.5l3.5,3.5c0.3,0.3,0.3,0.7,0,1C16,16.3,15.9,16.4,15.7,16.4z"/>
	</g>
</g>
</svg>
